<svg id="ac17a011-2235-4d6e-9215-68b7e9b08c6d" data-name="Layer 1" xmlns="http://www.w3.org/2000/svg" width="927.82501" height="430.53147" viewBox="0 0 927.82501 430.53147"><g id="e2e93f8f-7564-4f04-97ba-a6a57d99bb97" data-name="Group 207"><rect id="b5a541a8-7535-4c51-9d7f-fd8f7dfb820f" data-name="Rectangle 371" x="735.65002" y="317.13146" width="38.44" height="33.977" fill="#fff"/><rect id="b58c34ea-9b80-4190-9b84-c1a25f2ce0e8" data-name="Rectangle 372" x="735.65002" y="258.32247" width="38.44" height="33.438" fill="#fff"/><rect id="e47ca883-21cb-467c-8a20-6297fedb8667" data-name="Rectangle 373" x="690.18799" y="122.85546" width="34.464" height="119.297" fill="#f2f2f2"/><path id="bde9fe27-fc65-4752-b327-f8d1d468fd31" data-name="Path 2698" d="M883.50249,454.44573l-83.821-99.719-168.257,1.538-102.066,99.41,2.063,1.326h-.737v206.785h352.589v-206.782Z" transform="translate(-136.08749 -234.73426)" fill="#f2f2f2"/><path id="bb90e97d-6545-40e5-8624-e9426748ab48" data-name="Path 2699" d="M799.76549,354.93874l-104.716,122.768v186.078h188.224v-209.432Z" transform="translate(-136.08749 -234.73426)" fill="#e6e6e6"/><rect id="b9d2bcf1-4ed0-4d63-990a-eb373d41e900" data-name="Rectangle 374" x="634.51599" y="326.14745" width="38.44" height="33.977" fill="#fff"/><rect id="bc4ee958-773e-4b33-9c7e-f2b70eeb8edb" data-name="Rectangle 375" x="634.51599" y="267.33746" width="38.44" height="33.438" fill="#fff"/><rect id="b3260e63-627e-43d0-a31c-2932bbde74b6" data-name="Rectangle 378" x="463.685" y="317.13146" width="38.44" height="33.977" fill="#fff"/><rect id="ae0cef1e-5b8d-49a0-a20e-777b2a5076c1" data-name="Rectangle 379" x="463.685" y="258.32247" width="38.44" height="33.438" fill="#fff"/><rect id="f6229257-39af-4efc-bd56-2d238dab0191" data-name="Rectangle 380" x="407.13397" y="57.40746" width="41.83" height="144.79601" fill="#f2f2f2"/><path id="b6cfab8c-8a78-4f70-bce5-26dc2c1691ba" data-name="Path 2700" d="M612.67548,409.69773l-101.738-121.032-204.217,1.866-123.881,120.664,2.5,1.609h-.891v250.979h427.953v-250.98Z" transform="translate(-136.08749 -234.73426)" fill="#f2f2f2"/><path id="bf914a0c-c65d-4d2a-b54f-72b8100f5166" data-name="Path 2701" d="M511.04349,288.92273l-127.1,149.01v225.851h228.458v-254.2Z" transform="translate(-136.08749 -234.73426)" fill="#e6e6e6"/><rect id="b98448c5-7575-4239-b3cf-ca82a3e3ea20" data-name="Rectangle 381" x="339.99399" y="304.15148" width="37.105" height="32.797" fill="#fff"/><rect id="ad2d15e3-8e25-4aa4-9231-8b39d6750c8e" data-name="Rectangle 381" x="339.99399" y="247.15148" width="37.105" height="32.797" fill="#fff"/><rect id="eab00621-fabd-400a-a276-75efb7b0af3e" data-name="Rectangle 385" x="132.21701" y="293.20745" width="46.657" height="41.239" fill="#fff"/><rect id="a128758c-9ccb-419c-a0c2-268ccf30f6b6" data-name="Rectangle 386" x="132.21701" y="221.82748" width="46.657" height="40.585" fill="#fff"/><rect id="b31be022-322c-4be5-8445-6d19f347c82d" data-name="Rectangle 387" y="428.03045" width="927.82501" height="2.285" fill="#3f3d56"/><ellipse id="fb3e5fff-9d5c-4105-af2e-5dbce323d204" data-name="Ellipse 519" cx="139.265" cy="318.16147" rx="33.252" ry="67.848" fill="#3f3d56"/><path id="bc2a6fbc-79f0-4c8f-a768-fa2260ff1f0a" data-name="Path 2702" d="M278.4235,663.95173c-13.318-79.9-.134-159.52,0-160.314l2.591.439c-.134.79-13.242,79.988,0,159.444Z" transform="translate(-136.08749 -234.73426)" fill="#00bfa6"/><rect id="fc2c940b-5f2a-4062-b25b-4f06088919a1" data-name="Rectangle 388" x="273.15961" y="546.18961" width="34.1" height="2.628" transform="translate(-360.01398 -33.12933) rotate(-28.142)" fill="#00bfa6"/><rect id="b648551f-f898-40e6-8877-21ed995cf85e" data-name="Rectangle 389" x="257.16114" y="538.51392" width="2.628" height="34.101" transform="translate(-489.40112 286.54124) rotate(-61.842)" fill="#00bfa6"/><ellipse id="f6708a08-9efb-4dd9-92df-8379a87605a8" data-name="Ellipse 520" cx="58.747" cy="270.41145" rx="47.988" ry="97.915" fill="#00bfa6"/><path id="f0177925-0334-4681-bcee-c5ad2a35feb2" data-name="Path 2703" d="M200.17949,665.26571c-19.194-115.162-.194-229.905,0-231.051l1.911.324c-.194,1.143-19.138,115.577,0,230.409Z" transform="translate(-136.08749 -234.73426)" fill="#3f3d56"/><rect id="a712a46e-cade-4357-8e77-dbd0fc78e20d" data-name="Rectangle 390" x="191.67182" y="496.39623" width="49.213" height="1.939" transform="translate(-345.10608 -73.92688) rotate(-28.142)" fill="#3f3d56"/><rect id="bf5057d7-06ce-40d6-a693-afa411afed53" data-name="Rectangle 391" x="169.50882" y="484.39838" width="1.939" height="49.213" transform="translate(-494.82263 184.37099) rotate(-61.842)" fill="#3f3d56"/><path id="e0e32826-8a02-442b-88db-78ef9b028b9f" data-name="Path 2708" d="M797.90952,308.06674l10.519-8.414c-8.172-.9-11.53,3.555-12.9,7.083-6.384-2.651-13.335.823-13.335.823l21.047,7.641a15.92584,15.92584,0,0,0-5.328-7.134Z" transform="translate(-136.08749 -234.73426)" fill="#3f3d56"/><path id="fc170603-eecc-4d0e-91f5-af180c4776b3" data-name="Path 2709" d="M607.81448,243.26574l10.519-8.414c-8.172-.9-11.53,3.555-12.9,7.083-6.384-2.651-13.335.823-13.335.823l21.047,7.641A15.9271,15.9271,0,0,0,607.81448,243.26574Z" transform="translate(-136.08749 -234.73426)" fill="#3f3d56"/><path id="a6aaaefd-85ed-4294-a3ab-11630fdc860e" data-name="Path 2710" d="M872.57552,258.93173l10.519-8.414c-8.172-.9-11.53,3.555-12.9,7.083-6.384-2.651-13.335.823-13.335.823l21.047,7.641a15.926,15.926,0,0,0-5.328-7.134Z" transform="translate(-136.08749 -234.73426)" fill="#3f3d56"/><path id="f3e84e62-276d-410e-a851-b4ea7720fd1f" data-name="Path 2712" d="M425.41149,649.54571a15.90711,15.90711,0,0,0-7.966,2.138,17.12,17.12,0,0,0-28.6,12.718h52.507a15.987,15.987,0,0,0-15.94-14.855Z" transform="translate(-136.08749 -234.73426)" fill="#3f3d56"/><path id="a10acadf-7e52-492c-90db-e6a7dfe34535" data-name="Path 2713" d="M698.51952,649.54571a15.90719,15.90719,0,0,0-7.966,2.138,17.12,17.12,0,0,0-28.6,12.718h52.507A15.987,15.987,0,0,0,698.51952,649.54571Z" transform="translate(-136.08749 -234.73426)" fill="#3f3d56"/><g id="bb0b3cd5-3da7-43e4-8c5b-5b823a451806" data-name="Group 204"><path id="b00da081-b9b4-42ac-9e63-e919fc3419db" data-name="Path 2714" d="M563.9895,638.08373h-74.586v2.406h11.632v22.857h2.406v-22.857h45.306v22.857h2.406v-22.857h12.835Z" transform="translate(-136.08749 -234.73426)" fill="#3f3d56"/><rect id="bfe5832a-e115-41ee-a4ba-2e773473c4a6" data-name="Rectangle 400" x="353.46301" y="396.15148" width="74.586" height="2.406" fill="#3f3d56"/><rect id="bab13bb6-e6fe-4513-9003-eb57c5074c44" data-name="Rectangle 401" x="353.46301" y="390.13647" width="74.586" height="2.406" fill="#3f3d56"/></g><ellipse id="aa8721c8-d842-48ea-8483-672038784c80" data-name="Ellipse 525" cx="873.81801" cy="333.37448" rx="29.118" ry="59.413" fill="#e6e6e6"/><path id="fce21a03-aec9-4c43-a8b9-7fe7f02bca1f" data-name="Path 2716" d="M1006.66249,665.26574c11.647-69.878.117-139.5,0-140.2l-1.16.2c.117.693,11.613,70.13,0,139.808Z" transform="translate(-136.08749 -234.73426)" fill="#3f3d56"/><rect id="a5aff401-4db7-46be-9a4f-5e3e73b6543e" data-name="Rectangle 406" x="996.30183" y="548.4467" width="1.17742" height="29.87157" transform="translate(-106.29034 941.77214) rotate(-61.84665)" fill="#3f3d56"/><rect id="a468bbdf-a46e-4a5a-964c-a253080b064e" data-name="Rectangle 407" x="1009.75266" y="569.85975" width="29.87157" height="1.17742" transform="translate(-284.0109 316.23848) rotate(-28.15335)" fill="#3f3d56"/><g id="bad665b2-0551-4a31-9519-7a83feaa5b8f" data-name="Group 202"><path id="bd67ec29-eb54-49c9-a2f2-3741483e09c1" data-name="Path 2721" d="M974.80447,639.34674a1.76988,1.76988,0,0,1-1.677-.085c-.128-.078-.232.13-.1.208a1.98306,1.98306,0,0,0,1.855.1.121.121,0,0,0,.074-.147.117.117,0,0,0-.14593-.078Z" transform="translate(-136.08749 -234.73426)" fill="#fff"/><path id="b4658a82-8bfd-4cb5-87c9-3b978f05d2ab" data-name="Path 2749" d="M938.01151,617.31073a2.71515,2.71515,0,0,0,.746-4.095l3.156-24.522-5.9.248-1.24494,24.026a2.729,2.729,0,0,0,3.243,4.343Z" transform="translate(-136.08749 -234.73426)" fill="#ffb6b6"/><path id="ac8a2622-9b78-404a-a129-e22c6ad8388a" data-name="Path 2750" d="M965.4595,588.69074l.758,12.538-5.117,13.514-2.445-3.615,2.33-13.147-.646-8.411Z" transform="translate(-136.08749 -234.73426)" fill="#ffb6b6"/><path id="e1feea71-f079-424d-a2fd-b7fa32049e97" data-name="Path 2751" d="M958.13345,627.34873l.628,32.23-2.755.427-5.955-32.987Z" transform="translate(-136.08749 -234.73426)" fill="#ffb6b6"/><path id="a25e02b8-dad8-45e4-930f-c8ef4bf402b0" data-name="Path 2752" d="M940.26547,628.90674l4.312,31.946h2.788l.836-33.51Z" transform="translate(-136.08749 -234.73426)" fill="#ffb6b6"/><circle id="a2d9a217-bb30-4f6e-8758-798f4b2fc4f7" data-name="Ellipse 528" cx="812.29199" cy="331.83447" r="5.733" fill="#ffb6b6"/><path id="ed90311c-42ab-413e-a87b-8e2c2e7025e5" data-name="Path 2754" d="M958.8345,609.37073l2.406,5.625-2.406,7.569v7.834l-9.213.055-.2-9.634-1.24,9.634h-9.381l-1.736-19.31,2.491-4.57Z" transform="translate(-136.08749 -234.73426)" fill="#2f2e41"/><path id="a349bd5f-a368-4da1-9de8-714f537c8154" data-name="Path 2755" d="M946.53848,574.17871l-.678,1.256s-5.846,1.139-8.8,4.357l3.965,8.1-3.67205,23.445,21.648-1.443.768-18.051,3.258-12.625s-5.647-3.873-8.084-3.466l-.853-1.568Z" transform="translate(-136.08749 -234.73426)" fill="#00bfa6"/><path id="bc8c703e-ce79-44af-a241-f3b8113ec890" data-name="Path 2756" d="M942.62247,580.63575l-5.564-.843s-1.523,8.935-1.511,10.975l6.716,1.071Z" transform="translate(-136.08749 -234.73426)" fill="#00bfa6"/><path id="f0003231-8b75-4982-9bcf-ef14e3372ad2" data-name="Path 2757" d="M960.36844,579.78171l2.659-.57s1.026,3.255,2.718,10.921l-6.912,2.412Z" transform="translate(-136.08749 -234.73426)" fill="#00bfa6"/><path id="a787a3f3-2965-4511-86d6-f19297d9f1dd" data-name="Path 2758" d="M947.9075,662.94873h-10.013v-.127a3.9,3.9,0,0,1,3.9-3.9h6.113Z" transform="translate(-136.08749 -234.73426)" fill="#2f2e41"/><path id="be5f3b87-541b-42c1-8906-4b0eae6bb5c2" data-name="Path 2759" d="M959.97244,661.41675l-9.894,1.532-.019-.125a3.9,3.9,0,0,1,3.255-4.447h0l6.043-.936Z" transform="translate(-136.08749 -234.73426)" fill="#2f2e41"/><path id="bdf1dedf-97d6-423a-b81b-502059141602" data-name="Path 2800" d="M950.62747,568.89873a8.20624,8.20624,0,0,0-1.348-.351,3.063,3.063,0,0,1-2.343-3.453,1.55554,1.55554,0,0,0,.084-.569c-.06-.426-.559-.7-1.037-.8a11.52521,11.52521,0,0,1-1.444-.24,1.953,1.953,0,0,1-1.276-1.532,2.844,2.844,0,0,1,.484-1.908l.173.434a1.6162,1.6162,0,0,0,.564-.738,1.143,1.143,0,0,1,.886.622c.277.143.317-.444.624-.53a.61205.61205,0,0,1,.382.082,3.50008,3.50008,0,0,0,2-.1,8.57474,8.57474,0,0,1,3.489,0,4.41485,4.41485,0,0,1,2.062.927,4.233,4.233,0,0,1,.96094,1.445,7.41188,7.41188,0,0,1,.778,4.051,5.41888,5.41888,0,0,1-1.547,3.038c-.442.445-1.883,2-2.673,1.731C950.45444,570.67373,951.79745,569.43874,950.62747,568.89873Z" transform="translate(-136.08749 -234.73426)" fill="#2f2e41"/></g><g id="b0969277-1c50-4181-9d73-9d1859a1c16a" data-name="Group 203"><path id="ba337d0a-8297-454c-b7c0-a84cc7228b8a" data-name="Path 2809" d="M877.4935,615.07877a1.954,1.954,0,0,0,.465-2.959l2.539-25.476-4.239.281-1.174,25.086a1.964,1.964,0,0,0,2.41,3.068Z" transform="translate(-136.08749 -234.73426)" fill="#feb8b8"/><path id="baee58ba-8b7e-41bd-a49a-5a973cb51c9f" data-name="Path 2810" d="M874.5405,585.69776l1.111,8.447-.154,5.177,4.663.427.934-4.306.515-11.4a3.4,3.4,0,0,0-3.006-3.533h0a3.4,3.4,0,0,0-3.765,2.933Z" transform="translate(-136.08749 -234.73426)" fill="#2f2e41"/><path id="a55f708b-c56d-40d7-8fe0-6d66390244b3" data-name="Path 2811" d="M892.39648,660.02176h2.825l1.345-10.909h-4.174Z" transform="translate(-136.08749 -234.73426)" fill="#feb8b8"/><path id="b6b45ade-298d-4ff2-94a4-a37f95243eb6" data-name="Path 2812" d="M891.67548,662.76477h9.12v-.115a3.55,3.55,0,0,0-3.549-3.55h-5.57Z" transform="translate(-136.08749 -234.73426)" fill="#2f2e41"/><path id="f4649383-2595-4a8f-aa9c-3b4fb84ebbec" data-name="Path 2813" d="M869.04248,660.02176h2.828l1.346-10.909h-4.174Z" transform="translate(-136.08749 -234.73426)" fill="#feb8b8"/><path id="a8a00f62-f808-47f0-a287-933cb9b61641" data-name="Path 2814" d="M868.32053,662.76477h9.12v-.115a3.55,3.55,0,0,0-3.549-3.55h-5.57Z" transform="translate(-136.08749 -234.73426)" fill="#2f2e41"/><circle id="aa8274e2-6941-4dae-bd5e-def77c645208" data-name="Ellipse 532" cx="743.95301" cy="335.6295" r="6.132" fill="#feb8b8"/><path id="ee3cc59d-8ac2-404b-a5ce-5beed8fb1147" data-name="Path 2815" d="M880.8335,578.98475l-4.255.486h0a11.324,11.324,0,0,0-1.448,10.225l3.211,9.289s-4.457,8.936-4.457,17.232-8.489,37.91-8.489,37.91l11.949,1.246,5.214-31.547,7.185,31.42,8.2-1.335-4.517-41.2-2.985-13.559-.126-6.603s1.269-4.962-1.907-8.138l-3.878-5.4Z" transform="translate(-136.08749 -234.73426)" fill="#2f2e41"/><path id="a1940382-af04-4127-90cc-9837e50185c2" data-name="Path 2816" d="M887.18848,568.17377h-9.014v-3.928c1.978-.786,3.913-1.454,5.083,0a3.928,3.928,0,0,1,3.928,3.928h.003Z" transform="translate(-136.08749 -234.73426)" fill="#2f2e41"/><path id="acd8f2dd-d528-4732-b8ea-716e1c0bef4c" data-name="Path 2817" d="M877.6835,563.55277c-5.387,0-6.895,6.752-6.895,10.561,0,2.124.961,2.884,2.47,3.141l.533-2.843,1.249,2.966c.424,0,.87-.006,1.331-.015l.423-.872.944.856c3.781.006,6.838.557,6.838-3.233C884.57352,570.30576,883.25153,563.55277,877.6835,563.55277Z" transform="translate(-136.08749 -234.73426)" fill="#2f2e41"/><path id="e83ec7c5-dad6-4bed-8390-869fdd075c40" data-name="Path 2818" d="M885.64551,600.84777l.228-9.891.6-4.391,1.494,4.35Z" transform="translate(-136.08749 -234.73426)" opacity="0.2" style="isolation:isolate"/><path d="M875.31255,599.02858h-.001a5.39829,5.39829,0,0,1-5.38476-5.39062V583.51491a5.39915,5.39915,0,0,1,5.38476-5.38574,7.27919,7.27919,0,0,1,7.27149,7.27051v6.3584A7.279,7.279,0,0,1,875.31255,599.02858Z" transform="translate(-136.08749 -234.73426)" fill="#00bfa6"/><path id="bf0df318-8eb5-4d94-81d3-4bb15bcc9061" data-name="Path 2822" d="M887.31149,591.91077a9.417,9.417,0,0,0,2.018-6.03c0-4.39-2.615-7.961-5.829-7.961a5.36,5.36,0,0,0-4.46,2.829l.484.3a4.808,4.808,0,0,1,3.976-2.559c2.9,0,5.26,3.316,5.26,7.393a8.843,8.843,0,0,1-1.883,5.662Z" transform="translate(-136.08749 -234.73426)" fill="#00bfa6"/><path id="a9996706-20b7-4221-bf1d-631720fff922" data-name="Path 2823" d="M884.54849,616.10675a2.141,2.141,0,0,0,.333-3.265l1.263-28.024-4.621.56.206,27.516a2.152,2.152,0,0,0,2.819,3.213Z" transform="translate(-136.08749 -234.73426)" fill="#feb8b8"/><path id="b7e51dee-6a07-4936-9052-464035fd5ac7" data-name="Path 2824" d="M879.57053,584.13974l1.718,9.176.139,5.673,5.126.19.766-4.766-.114-12.5a3.727,3.727,0,0,0-3.5-3.686h0a3.727,3.727,0,0,0-3.945,3.433Z" transform="translate(-136.08749 -234.73426)" fill="#2f2e41"/></g><g id="a58cce9b-d39c-47cc-8120-0d42dfc791ce" data-name="Group 205"><path id="a0dd0c82-950a-49db-94f4-e7e7de1bc5af" data-name="Path 2714-2" d="M837.0965,638.08373h-74.586v2.406h11.632v22.857h2.406v-22.857h45.306v22.857h2.406v-22.857h12.835Z" transform="translate(-136.08749 -234.73426)" fill="#3f3d56"/><rect id="f2727459-dd1d-4acf-8fac-ec7a83bd6430" data-name="Rectangle 400-2" x="626.57001" y="396.15148" width="74.586" height="2.406" fill="#3f3d56"/><rect id="bb8522d3-8057-452e-ad4f-a3017d1ac1bc" data-name="Rectangle 401-2" x="626.57001" y="390.13647" width="74.586" height="2.406" fill="#3f3d56"/></g><circle id="e302e70a-8ea6-4f05-9d51-f108afd7265a" data-name="Ellipse 533" cx="416.15512" cy="371.23197" r="5.318" fill="#a0616a"/><g id="a8186a18-1b70-4502-ae04-cf9d2cd206dc" data-name="Group 206"><path id="e1966b26-6f2b-4ac7-865b-2385e7a0bdf7" data-name="Path 2833" d="M562.77948,660.12374h2.722l1.3-10.5h-4.022Z" transform="translate(-136.08749 -234.73426)" fill="#a0616a"/><path id="b35ef1a7-3511-45c7-87ed-516152d0abc7" data-name="Path 2834" d="M562.08548,659.23572h5.361a3.417,3.417,0,0,1,3.417,3.416v.111h-8.778Z" transform="translate(-136.08749 -234.73426)" fill="#2f2e41"/><path id="ba293adc-98d4-49a8-bd80-6bd9032c7387" data-name="Path 2835" d="M552.2435,654.54273l-2.206,1.6-7.2-7.748,3.255-2.355Z" transform="translate(-136.08749 -234.73426)" fill="#a0616a"/><path id="f74f808b-d3e7-4f43-b666-3d99fd8b783e" data-name="Path 2836" d="M554.3515,656.27972l-7.112,5.146-.065-.09a3.417,3.417,0,0,1,.765-4.771h0l4.344-3.143Z" transform="translate(-136.08749 -234.73426)" fill="#2f2e41"/><path id="f51e1217-fe86-4590-9400-b814e4ba9137" data-name="Path 2837" d="M555.2215,613.72971a5.2,5.2,0,0,0-5.945,0l-2.137,17.828h6.418l.951-5.7,2.139-8.557Z" transform="translate(-136.08749 -234.73426)" fill="#00bfa6"/><path id="a9447c5c-1b6b-49f4-bd4e-0fb963a216ca" data-name="Path 2838" d="M561.6515,641.26474l-11.519-3.761-5.491,4.357,5.834,8.918-3.051,4-.087-.1c-.379-.431-9.271-10.593-9.245-13.475a21.68273,21.68273,0,0,1,.982-5.76l2.889-4.1,4.1-1.206,13.572,1.9h.022l5.484,3.338a4.308,4.308,0,0,1,1.952,3.183c.235,2.119.709,19.092.714,19.263v.111h-5.914Z" transform="translate(-136.08749 -234.73426)" fill="#2f2e41"/><path id="b0ec83f4-34be-41ac-ac5c-e463e309da0c" data-name="Path 2839" d="M554.3495,637.00472c-2-.89-4.559-4.364-4.98-4.95-.824.448-6.831,3.659-8.525,2.834a3.145,3.145,0,0,0-1.558,1.8l-.05.251-.145-.211c-.027-.039-2.636-3.919.739-6.33a10.54981,10.54981,0,0,0,3.992-4.673l-1.67-8.826.044-.041c.137-.127,3.388-3.118,6.354-3.474l1.83-.323.08,6.966v8.918c1.478-.186,3.817-15.768,3.817-15.768l1.222.448c.316.061,3.865.77,4.807,2.182l.031.046-3.228,8.728-.944,1.421v1.819l5.516,4.8-.078.082c-.188.2-4.255,4.427-6.624,4.426A1.53618,1.53618,0,0,1,554.3495,637.00472Z" transform="translate(-136.08749 -234.73426)" fill="#3f3d56"/><path id="eefca04e-f413-4147-9cd0-c317d0fe543c" data-name="Path 2840" d="M550.9045,638.58973a2.08192,2.08192,0,0,1,2.685-1.727l3.048-3.654,2.672,1.311-4.377,5.1a2.093,2.093,0,0,1-4.028-1.029Z" transform="translate(-136.08749 -234.73426)" fill="#a0616a"/><path id="ff34ef5e-7b9c-4951-9659-39755bce11d9" data-name="Path 2841" d="M553.05849,635.49172l4.782-6.455-1.184-6.4,1.922-7.206.048-.021a2.479,2.479,0,0,1,1.658-.114,1.12106,1.12106,0,0,1,.624.648c.476,1.189,1.623,13.3,1.671,13.838a13.68414,13.68414,0,0,1-.724,3.366c-.477.953-4.824,5.762-5.008,5.967l-.076.084Z" transform="translate(-136.08749 -234.73426)" fill="#3f3d56"/><path id="f7214f4f-31e3-4811-b615-35d765e84f5c" data-name="Path 2842" d="M556.81149,604.59772c-1.77,2.226-4.8,1.818-7.231,1a7.693,7.693,0,0,1-1.369,5.022c.313-1.263-1.007-1.514-1.778-1.984-.3-.376-.05-.936-.172-1.4-1.384-1.622-2.3-2.846-.524-4.75,1.04-1.392,2.288-3.129,4.269-2.764,1.568-1.829,4.136-1.353,5.889-.074a12.51906,12.51906,0,0,1,2.136,2.007,8.5001,8.5001,0,0,1-1.109,2.786" transform="translate(-136.08749 -234.73426)" fill="#2f2e41"/><path id="bfe53212-0def-40e7-8ff5-929a9fdb9ea9" data-name="Path 2845" d="M552.74649,640.14372a2.082,2.082,0,0,0-2.685-1.727l-3.048-3.654-2.672,1.311,4.377,5.1a2.093,2.093,0,0,0,4.028-1.029Z" transform="translate(-136.08749 -234.73426)" fill="#a0616a"/><path id="f06f3d19-66e8-4120-a295-4fab0eca013e" data-name="Path 2846" d="M546.83649,639.48873c-.273-.2-6.684-5.024-7.4-6.456s-.54-5.684-.53-5.877a69.58952,69.58952,0,0,1,2.072-9.068,2.627,2.627,0,0,1,3.39073-1.51831q.03938.015.07826.03131l.074.03-1.073,12.518,5.853,7.764-2.384,2.635Z" transform="translate(-136.08749 -234.73426)" fill="#3f3d56"/></g></g></svg>