<svg id="Layer_1" enable-background="new 0 0 511.976 511.976" height="512" viewBox="0 0 511.976 511.976" width="512" xmlns="http://www.w3.org/2000/svg"><g><path d="m436.999 74.977c-48.35-48.35-112.634-74.977-181.011-74.977s-132.661 26.627-181.011 74.977-74.977 112.634-74.977 181.011 26.627 132.661 74.977 181.011 112.634 74.977 181.011 74.977 132.661-26.627 181.011-74.977 74.977-112.634 74.977-181.011-26.628-132.661-74.977-181.011z" fill="#ffda2d"/><path d="m436.999 74.977c-48.35-48.35-112.634-74.977-181.011-74.977v511.976c68.377 0 132.661-26.627 181.011-74.977s74.977-112.634 74.977-181.011-26.628-132.661-74.977-181.011z" fill="#febf01"/><g><path d="m255.988 419.663c-47.248 0-90.952-21.461-119.904-58.88l23.727-18.358c23.229 30.021 58.284 47.239 96.177 47.239 37.894 0 72.949-17.218 96.177-47.239l23.728 18.358c-28.953 37.419-72.657 58.88-119.905 58.88z" fill="#606060"/></g><path d="m284.668 171.522h-57.338l-175.761-12.04 11.941 81.036c2.569 17.43 11.328 33.37 24.663 44.884s30.381 17.855 48 17.855h32.195c40.499 0 73.447-32.948 73.447-73.447v-28.289h28.368v28.289c0 40.499 32.948 73.447 73.447 73.447h32.195c17.618 0 34.665-6.341 48-17.855s22.094-27.454 24.663-44.884l11.941-81.036z" fill="#404040"/><path d="m375.893 360.782-23.728-18.358c-23.228 30.021-58.283 47.239-96.177 47.239v30c47.248 0 90.952-21.461 119.905-58.881z" fill="#404040"/><path d="m284.668 171.522h-28.68v30h14.195v28.289c0 40.499 32.948 73.447 73.447 73.447h32.195c17.618 0 34.665-6.341 48-17.855s22.094-27.454 24.663-44.884l11.941-81.036z" fill="#242424"/></g></svg>