<?xml version="1.0" encoding="iso-8859-1"?>
<!-- Generator: Adobe Illustrator 16.0.0, SVG Export Plug-In . SVG Version: 6.00 Build 0)  -->
<!DOCTYPE svg PUBLIC "-//W3C//DTD SVG 1.1//EN" "http://www.w3.org/Graphics/SVG/1.1/DTD/svg11.dtd">
<svg version="1.1" id="Capa_1" xmlns="http://www.w3.org/2000/svg" xmlns:xlink="http://www.w3.org/1999/xlink" x="0px" y="0px"
	 width="612px" height="612px" viewBox="0 0 612 612" style="enable-background:new 0 0 612 612;" xml:space="preserve">
<g>
	<g id="_x37__7_">
		<g>
			<path d="M130.203,157.246c7.478,7.478,19.584,7.478,27.042,0c7.459-7.478,7.459-19.584,0-27.042L116.682,89.62
				c-7.478-7.478-19.584-7.478-27.043,0c-7.478,7.478-7.478,19.584,0,27.043L130.203,157.246z M141.716,443.509l-40.182,40.182
				c-7.401,7.401-7.401,19.393,0,26.794s19.393,7.401,26.794,0l40.182-40.182c7.401-7.401,7.401-19.393,0-26.794
				S149.118,436.107,141.716,443.509z M306,95.625c10.557,0,19.125-8.568,19.125-19.125V19.125C325.125,8.568,316.557,0,306,0
				c-10.557,0-19.125,8.568-19.125,19.125V76.5C286.875,87.057,295.443,95.625,306,95.625z M490.002,148.792l40.182-40.182
				c7.401-7.401,7.401-19.393,0-26.794s-19.394-7.401-26.795,0l-40.182,40.182c-7.401,7.401-7.401,19.393,0,26.794
				C470.609,156.194,482.601,156.194,490.002,148.792z M76.5,286.875H19.125C8.568,286.875,0,295.443,0,306
				c0,10.557,8.568,19.125,19.125,19.125H76.5c10.557,0,19.125-8.568,19.125-19.125C95.625,295.443,87.057,286.875,76.5,286.875z
				 M306,516.375c-10.557,0-19.125,8.568-19.125,19.125v57.375c0,10.557,8.568,19.125,19.125,19.125
				c10.557,0,19.125-8.568,19.125-19.125V535.5C325.125,524.943,316.557,516.375,306,516.375z M592.875,286.875H535.5
				c-10.557,0-19.125,8.568-19.125,19.125c0,10.557,8.568,19.125,19.125,19.125h57.375c10.557,0,19.125-8.568,19.125-19.125
				C612,295.443,603.432,286.875,592.875,286.875z M481.797,454.754c-7.478-7.478-19.584-7.478-27.043,0
				c-7.478,7.479-7.478,19.584,0,27.043l40.564,40.564c7.478,7.478,19.584,7.478,27.043,0c7.459-7.479,7.478-19.584,0-27.043
				L481.797,454.754z M306,133.76c-95.128,0-172.24,77.112-172.24,172.24S210.872,478.24,306,478.24S478.24,401.128,478.24,306
				S401.128,133.76,306,133.76z"/>
		</g>
	</g>
</g>
<g>
</g>
<g>
</g>
<g>
</g>
<g>
</g>
<g>
</g>
<g>
</g>
<g>
</g>
<g>
</g>
<g>
</g>
<g>
</g>
<g>
</g>
<g>
</g>
<g>
</g>
<g>
</g>
<g>
</g>
</svg>
